<?xml version="1.0" encoding="UTF-8"?>
<svg version="1.1" xmlns="http://www.w3.org/2000/svg" width="65" height="59">
<path d="M0 0 C0.99 0.66 1.98 1.32 3 2 C3.99 1.34 4.98 0.68 6 0 C11.79968526 -0.4383483 15.99168449 1.14025364 20.4375 4.7421875 C22.11319347 6.16729478 22.11319347 6.16729478 24.75 7.5 C28.01330617 9.67553745 29.64660399 12.28350508 30.4375 16.125 C30.83903059 18.20317917 30.83903059 18.20317917 33 19.28125 C35 21 35 21 35.56640625 23.5234375 C35.55561418 31.40164626 35.55561418 31.40164626 32.5625 34.625 C31.716875 35.40875 30.87125 36.1925 30 37 C29.56963895 39.18467068 29.56963895 39.18467068 29.5 41.5625 C29.2508881 45.72820456 29.2508881 45.72820456 26.75 48.4375 C24 50 24 50 21.58203125 50.90234375 C18.94953413 52.02145372 17.16311742 53.349652 14.9375 55.125 C9.46172789 58.84852504 4.43843177 59.04668495 -2 58 C-4.89760374 56.97992521 -7.37310653 55.57271713 -10 54 C-12.33124929 52.99515117 -14.66443537 51.99477753 -17 51 C-22.55189137 48.59068865 -22.55189137 48.59068865 -24.375 46.1875 C-25.38357035 42.65750376 -25.66426454 39.32852908 -24 36 C-24.639375 35.71125 -25.27875 35.4225 -25.9375 35.125 C-28 34 -28 34 -29 32 C-29.12176503 30.19051505 -29.17545792 28.37603729 -29.1875 26.5625 C-29.20167969 25.59441406 -29.21585938 24.62632813 -29.23046875 23.62890625 C-29 21 -29 21 -27 18 C-26.01 18 -25.02 18 -24 18 C-24.0825 17.113125 -24.165 16.22625 -24.25 15.3125 C-23.93789433 11.17709988 -22.94675381 9.86920766 -20 7 C-18.03533587 5.93224776 -16.03144641 4.93446535 -14 4 C-12.576875 2.9171875 -12.576875 2.9171875 -11.125 1.8125 C-6.96404925 -0.60085143 -4.7560601 -0.46780919 0 0 Z " fill="#B6DAFE" transform="translate(30,1)"/>
<path d="M0 0 C0.99 0.66 1.98 1.32 3 2 C3.99 1.34 4.98 0.68 6 0 C11.79968526 -0.4383483 15.99168449 1.14025364 20.4375 4.7421875 C22.11319347 6.16729478 22.11319347 6.16729478 24.75 7.5 C28.01330617 9.67553745 29.64660399 12.28350508 30.4375 16.125 C30.83903059 18.20317917 30.83903059 18.20317917 33 19.28125 C35 21 35 21 35.56640625 23.5234375 C35.55561418 31.40164626 35.55561418 31.40164626 32.5625 34.625 C31.716875 35.40875 30.87125 36.1925 30 37 C29.56963895 39.18467068 29.56963895 39.18467068 29.5 41.5625 C29.2508881 45.72820456 29.2508881 45.72820456 26.75 48.4375 C24 50 24 50 21.58203125 50.90234375 C18.94953413 52.02145372 17.16311742 53.349652 14.9375 55.125 C9.46172789 58.84852504 4.43843177 59.04668495 -2 58 C-4.89760374 56.97992521 -7.37310653 55.57271713 -10 54 C-12.33124929 52.99515117 -14.66443537 51.99477753 -17 51 C-22.55189137 48.59068865 -22.55189137 48.59068865 -24.375 46.1875 C-25.38357035 42.65750376 -25.66426454 39.32852908 -24 36 C-24.639375 35.71125 -25.27875 35.4225 -25.9375 35.125 C-28 34 -28 34 -29 32 C-29.12176503 30.19051505 -29.17545792 28.37603729 -29.1875 26.5625 C-29.20167969 25.59441406 -29.21585938 24.62632813 -29.23046875 23.62890625 C-29 21 -29 21 -27 18 C-26.01 18 -25.02 18 -24 18 C-24.0825 17.113125 -24.165 16.22625 -24.25 15.3125 C-23.93789433 11.17709988 -22.94675381 9.86920766 -20 7 C-18.03533587 5.93224776 -16.03144641 4.93446535 -14 4 C-12.576875 2.9171875 -12.576875 2.9171875 -11.125 1.8125 C-6.96404925 -0.60085143 -4.7560601 -0.46780919 0 0 Z M-12 6 C-12.75021244 8.45632332 -12.75021244 8.45632332 -12 11 C-10.10183458 13.7905817 -10.10183458 13.7905817 -8 16 C-10.90802461 13.78071806 -12.95312762 12.07030857 -15 9 C-17.43717258 9.27034634 -17.43717258 9.27034634 -20 10 C-22.1519437 13.22791555 -22.20086443 14.28400809 -22 18 C-20.02 18.33 -18.04 18.66 -16 19 C-16 19.66 -16 20.32 -16 21 C-16.62648438 20.90460937 -17.25296875 20.80921875 -17.8984375 20.7109375 C-18.71570312 20.60007812 -19.53296875 20.48921875 -20.375 20.375 C-21.18710937 20.25898438 -21.99921875 20.14296875 -22.8359375 20.0234375 C-23.55007812 20.01570313 -24.26421875 20.00796875 -25 20 C-27.34783968 21.92279453 -27.34783968 21.92279453 -27.3125 25.3125 C-26.98354921 29.19411929 -26.35208803 30.95099699 -24 34 C-23.01 34.66 -22.02 35.32 -21 36 C-21.33 36.66 -21.66 37.32 -22 38 C-22.4226509 42.61823824 -22.4226509 42.61823824 -20.9375 46.875 C-18.89054994 48.23698744 -18.89054994 48.23698744 -15.6875 48.375 C-11.15188894 49.14374764 -9.38814174 50.98013454 -6 54 C-1.62269032 56.48441901 3.08713762 56.824251 8 56 C11.84692957 54.23408864 15.01331613 51.98668387 18 49 C18.969375 48.690625 19.93875 48.38125 20.9375 48.0625 C24.66605369 46.86825921 24.66605369 46.86825921 27 44 C26.74468291 40.42556076 26.13211641 37.39634923 25 34 C26.98 34 28.96 34 31 34 C33.3297964 30.35969312 33.3862557 27.24881273 33 23 C32.08333333 20.91666667 32.08333333 20.91666667 30 20 C26.37464024 19.7496423 26.37464024 19.7496423 23 20 C24.32 19.34 25.64 18.68 27 18 C27.36794764 14.68847126 27.29809215 13.39390748 25.25 10.6875 C22.93541667 8.6 22.93541667 8.6 19 9 C18.54625 9.969375 18.0925 10.93875 17.625 11.9375 C16 15 16 15 14 16 C14.495 15.278125 14.99 14.55625 15.5 13.8125 C17.10858657 10.79640018 17.6165643 9.34706336 17 6 C15.50098982 4.01990794 15.50098982 4.01990794 13 3 C9.37436186 2.66619186 9.37436186 2.66619186 6 3 C4.74050951 4.03406673 4.74050951 4.03406673 4.90234375 6.28515625 C4.91394531 7.20167969 4.92554687 8.11820313 4.9375 9.0625 C4.94652344 9.98160156 4.95554687 10.90070312 4.96484375 11.84765625 C4.97644531 12.55792969 4.98804687 13.26820312 5 14 C5.66 14 6.32 14 7 14 C7 14.66 7 15.32 7 16 C6.071875 15.7215625 6.071875 15.7215625 5.125 15.4375 C2.95839822 14.76313824 2.95839822 14.76313824 1 16 C1.33 15.34 1.66 14.68 2 14 C2.2352732 11.89145964 2.2352732 11.89145964 2.25 9.5625 C2.27578125 8.78003906 2.3015625 7.99757813 2.328125 7.19140625 C1.92071527 4.47049126 1.18201921 3.62883124 -1 2 C-5.99775416 1.23947219 -8.58755007 2.28645154 -12 6 Z " fill="#6392D2" transform="translate(30,1)"/>
<path d="M0 0 C1.0209375 0.99 1.0209375 0.99 2.0625 2 C5.73085974 4.49760663 7.64197392 4.6338947 12 4 C14.44098818 2.14579161 14.44098818 2.14579161 16 0 C15.25 4.75 15.25 4.75 13 7 C8.29672611 7.4626171 6.07079624 7.64693939 2 5.1875 C0 3 0 3 0 0 Z " fill="#6796D4" transform="translate(25,37)"/>
<path d="M0 0 C2.125 0.375 2.125 0.375 4 1 C3.42655063 3.86724686 3.1385485 4.8614515 1 7 C-1.125 6.625 -1.125 6.625 -3 6 C-2.42655063 3.13275314 -2.1385485 2.1385485 0 0 Z " fill="#6B99D6" transform="translate(23,25)"/>
<path d="M0 0 C1.65 0 3.3 0 5 0 C5.33 1.32 5.66 2.64 6 4 C4.35 4.33 2.7 4.66 1 5 C0.67 3.35 0.34 1.7 0 0 Z " fill="#6191D1" transform="translate(39,26)"/>
<path d="M0 0 C0.268125 0.598125 0.53625 1.19625 0.8125 1.8125 C1.8893979 4.04327908 1.8893979 4.04327908 3.625 5.625 C4.07875 6.07875 4.5325 6.5325 5 7 C5 7.66 5 8.32 5 9 C0.7257442 7.4169423 -1.26531794 4.49431596 -4 1 C-2.68 0.67 -1.36 0.34 0 0 Z " fill="#74A1DB" transform="translate(17,8)"/>
<path d="M0 0 C0.33 0 0.66 0 1 0 C1 2.64 1 5.28 1 8 C1.66 8 2.32 8 3 8 C3 8.66 3 9.32 3 10 C1.02 10 -0.96 10 -3 10 C-3 9.34 -3 8.68 -3 8 C-2.34 7.67 -1.68 7.34 -1 7 C-0.59270772 4.67843403 -0.25561323 2.3431213 0 0 Z " fill="#76A2DC" transform="translate(34,7)"/>
</svg>
